<?xml version="1.0" encoding="UTF-8"?>
<svg id="Layer_2" xmlns="http://www.w3.org/2000/svg" viewBox="0 0 131.74 131.21">
  <g id="Layer_1-2" data-name="Layer_1">
    <g>
      <path d="M131.74,103.34c0,7.66-.85,15.12-2.44,22.3-.71,3.24-3.54,5.57-6.85,5.57H7c-3.87,0-7-3.14-7-7V9.41C0,6.14,2.26,3.31,5.46,2.58,12.83.9,20.51,0,28.39,0c6.23,0,12.32.55,18.25,1.6C22.61,11.57,6.18,35.73,7.3,63.23c1.45,35.24,31.19,62.65,66.44,61.2,25.66-1.05,47.16-17.09,56.4-39.35,1.05,5.92,1.6,12.03,1.6,18.26Z"/>
      <path d="M129.66,73.09c-.22,1.23-.73,2.37-1.47,3.33-1.13,1.52-2.82,2.6-4.77,2.95-2.67.47-5.4.78-8.18.89-33.66,1.38-62.06-24.78-63.44-58.44-.18-4.48.12-8.86.87-13.1.36-2.08,1.55-3.87,3.21-5.02.89-.63,1.92-1.06,3.03-1.26,2.67-.48,5.4-.79,8.18-.9,33.66-1.38,62.06,24.79,63.44,58.44.18,4.48-.13,8.87-.87,13.11Z"/>
    </g>
  </g>
</svg>